<svg xmlns="http://www.w3.org/2000/svg" height="1024" preserveAspectRatio="none" style="display: block;" version="1.1" viewBox="0 0 2048 2048" width="1024">
<path d="M 0 0 L 2048 0 L 2048 2048 L 0 2048 L 0 0 z" fill="rgb(255,255,255)" transform="translate(0,0)"></path>
<path d="M 1028.61 799.41 C 1040.89 797.652 1069.67 799.572 1081.9 801.432 C 1144.74 810.368 1201.4 844.036 1239.29 894.952 C 1266.18 931.473 1281.99 967.388 1289.62 1012.15 C 1307.73 1118.36 1251.43 1185.26 1201.37 1270.62 C 1169.73 1323.47 1142.1 1378.62 1118.71 1435.61 C 1094.08 1496.67 1077.49 1555.42 1077.72 1621.33 C 1077.79 1640.25 1079.06 1655.3 1061.75 1667.27 C 1058.82 1668.54 1053.59 1670.64 1050.49 1670.77 C 1004.45 1672.66 1014.23 1630.98 1012.11 1602.99 C 1009.53 1570.52 1003.86 1538.38 995.165 1507 C 978.16 1446.69 941.111 1363.7 912.011 1308.3 C 898.315 1282.78 884.136 1257.53 869.48 1232.55 C 838.105 1180.07 804.766 1131.49 799.032 1067.97 C 793.483 1003.31 813.954 939.11 855.909 889.596 C 901.131 835.595 958.651 805.681 1028.61 799.41 z" fill="rgb(234,88,12)" transform="translate(0,0)"></path>
<path d="M 1039.42 929.698 C 1101.35 925.797 1154.78 972.706 1158.93 1034.62 C 1163.09 1096.54 1116.39 1150.16 1054.49 1154.56 C 992.236 1158.99 938.241 1111.97 934.066 1049.7 C 929.891 987.426 977.128 933.621 1039.42 929.698 z" fill="rgb(255,255,255)" transform="translate(0,0)"></path>
<path d="M 1038.71 378.418 C 1063.83 375.192 1093.1 386.46 1111.6 403.31 C 1148.99 437.387 1184.58 473.139 1220.94 508.27 L 1428.01 707.98 C 1470.05 747.94 1511.85 788.137 1553.43 828.571 C 1573.25 847.683 1594.18 867.125 1612.99 887.259 C 1621.21 896.052 1626.34 912.3 1627.07 924.49 C 1630.04 973.7 1570.42 1006.86 1531.37 974.053 C 1522.69 966.789 1515.23 959.446 1507.13 951.603 L 1470.97 916.605 L 1363.34 813.696 L 1046.66 511.331 C 1044.75 509.746 1043.21 508.839 1041.04 510.885 C 1036.59 515.06 1032.31 519.409 1027.89 523.624 L 990.605 559.127 L 701.747 834.364 L 612.023 920.229 C 594.061 937.555 575.498 956.127 556.529 972.348 C 546.647 980.797 537.108 985.216 524.002 986.479 C 508.715 988.003 493.467 983.237 481.769 973.278 C 469.159 962.675 461.374 947.421 460.186 930.989 C 459.403 919.804 463.008 901.372 470.503 892.84 C 497.994 861.546 530.628 834.551 560.163 805.611 L 796.858 578.227 L 924.982 455.478 C 938.563 442.433 953.018 428.904 966.162 415.505 C 988.638 392.594 1006.4 381.515 1038.71 378.418 z" fill="rgb(234,88,12)" transform="translate(0,0)"></path>
<path d="M 1384.65 945.843 C 1394 953.903 1404.41 964.449 1413.57 973.128 C 1430.48 988.95 1447.2 1004.96 1463.75 1021.16 C 1473.69 1030.93 1493.09 1047.39 1499.56 1058.62 C 1514.61 1084.76 1508.04 1130.72 1508.88 1160.32 C 1510.93 1232.47 1507.96 1300.38 1457.86 1357.32 C 1415.75 1405.17 1370.53 1426.93 1307.12 1431.97 C 1267.3 1432.86 1223.93 1432.02 1183.73 1432.05 C 1199.63 1396.26 1229.64 1341.93 1251.94 1309.04 C 1290.14 1309.34 1322.23 1314.23 1353.54 1287.18 C 1392.85 1253.22 1384.67 1205.4 1384.41 1158.05 L 1384.49 1020.42 C 1384.46 1000.12 1383.07 965.652 1384.55 946.904 L 1384.65 945.843 z" fill="rgb(234,88,12)" transform="translate(0,0)"></path>
<path d="M 702.67 945.808 C 703.643 949.558 703.117 990.166 703.152 997.361 L 703.83 1135.06 C 703.806 1167.89 701.326 1211.97 707.372 1243.29 C 713.255 1273.77 748.362 1306.54 779.789 1308.4 C 798.463 1309.51 819.444 1309.14 838.917 1309.03 C 866.96 1349.2 888.179 1389.03 910.722 1432.09 C 870.319 1431.86 829.914 1431.82 789.511 1431.99 C 783.878 1432.04 778.245 1431.84 772.629 1431.4 C 723.13 1427.99 669.209 1400.84 636.714 1363.66 C 583.489 1306.12 579.819 1233.44 582.664 1159.31 C 583.654 1133.54 577.113 1079.65 590.335 1057.27 C 599.564 1041.64 627.25 1017.38 641.16 1003.87 C 660.464 985.107 682.223 963.532 702.67 945.808 z" fill="rgb(234,88,12)" transform="translate(0,0)"></path>
<metadata><recraft-signature>{"signed_by": "recraft", "signature_b64": "OlaNOfN23ShzosWhd+VczN57C19svJFwrS5g8T8cWsyUyqciVGNNoA9/7u6UsCY6iGwaamJ/djJiauOLRLZSDg==", "signing_algo": "Ed25519", "generation_timestamp": 1781621401, "identifier": "74db7029-58ae-47ae-aaf2-e02bc06c4f27"}</recraft-signature></metadata></svg>