<svg xmlns="http://www.w3.org/2000/svg" height="1024" style="display: block;" version="1.1" viewBox="0 0 2048 2048" width="1024">
<path d="M 1021.99 359.403 C 1028.22 358.564 1043.82 358.76 1050.09 359.006 C 1096.82 360.542 1142.28 374.584 1181.73 399.669 C 1126.18 449.345 1092.08 493.54 1075.28 567.835 C 1060.62 562.065 1049.5 558.607 1033.69 559.005 C 994.077 560.002 972.35 587.109 946.907 613.222 L 895.864 665.709 L 749.309 815.253 L 643.069 923.073 C 626.585 939.775 607.281 958.045 592.336 975.769 C 582.78 987.103 573.626 1011.3 573.05 1026.23 C 571.924 1055.47 572.627 1086.36 572.713 1115.83 L 572.735 1270.21 L 572.655 1362.6 C 572.521 1400.88 567.293 1428.73 594.28 1459.72 C 608.99 1476.84 630.011 1487.27 652.542 1488.62 C 666.616 1489.51 686.325 1488.83 700.668 1488.75 L 783.557 1488.6 L 1052.27 1488.72 L 1226.59 1488.66 C 1254.77 1488.68 1285.56 1489.56 1313.48 1488.09 C 1328.63 1487.28 1350.18 1478.21 1361.37 1467.58 C 1390.73 1439.68 1391.04 1412.42 1390.86 1375.1 C 1390.76 1355.27 1389.99 1327.83 1391.09 1308.92 C 1417.88 1320.33 1434.71 1326.54 1464.54 1322.85 C 1502.43 1318.15 1536.66 1293.25 1557.62 1262.03 C 1567.01 1248.04 1574.88 1230.48 1585.26 1217.48 C 1585.9 1268.1 1584.61 1319.16 1585.22 1369.83 C 1585.48 1392.03 1585.89 1417.99 1583.1 1439.76 C 1579.34 1492.62 1548.8 1554.45 1514.22 1594.16 C 1466.18 1649.33 1395.02 1684.56 1322.1 1690.58 C 1304.43 1692.04 1285.34 1691.51 1267.64 1691.5 L 1188.13 1691.43 L 939.241 1691.37 L 744.405 1691.42 C 699.4 1691.48 650.417 1694.15 606.409 1686.39 C 480.843 1664.23 381.265 1555.13 372.379 1427.52 C 370.572 1401.56 371.544 1373.46 371.575 1347.27 L 371.531 1219.86 L 371.703 1103.78 C 371.652 1063.59 369.513 1021.23 377.796 982.134 C 387.96 934.166 408.511 887.042 440.993 849.986 C 455.858 833.028 474.807 814.992 490.837 798.865 L 552.33 736.15 L 703.603 581.936 L 803.112 479.968 C 828.493 453.983 853.767 425.193 883.796 405.022 C 927.349 375.767 970.265 363.25 1021.99 359.403 z" fill="rgb(254,71,23)" transform="translate(0,0)"></path>
<path d="M 1451.47 358.49 C 1605.71 357.639 1743.85 485.989 1759.33 638.507 C 1763.61 680.689 1760.13 727.583 1744.87 767.502 C 1727.37 813.308 1695.83 854.572 1671.75 897.858 L 1550.5 1115.13 C 1537.06 1139.55 1523.46 1163.9 1509.73 1188.16 C 1493.65 1216.6 1486.96 1238.99 1449.44 1241.08 C 1407.54 1237.37 1399.6 1204.21 1381.52 1171.94 C 1362.18 1137.75 1343.23 1103.35 1324.68 1068.73 L 1223.5 886.183 C 1203.64 851.102 1176.14 815.663 1160.34 778.684 C 1116.03 674.983 1145.29 545.254 1220.11 463.374 C 1282.12 395.515 1360.77 361.373 1451.47 358.49 z M 1466.51 812.049 C 1544.21 802.836 1599.68 732.326 1590.36 654.642 C 1581.04 576.958 1510.45 521.58 1432.78 531.016 C 1355.26 540.433 1300.02 610.848 1309.33 688.374 C 1318.63 765.901 1388.97 821.243 1466.51 812.049 z" fill="rgb(254,71,23)" transform="translate(0,0)"></path>
<metadata><recraft-signature>{"signed_by": "recraft", "signature_b64": "HNPqRVA8v4LBn4OnIKJRXsn+/mbKzXAMACsOs02iY5QhtFLETtw76kqMs6rOG3WFoWBh0AzH3C6h7stD/IlYDw==", "signing_algo": "Ed25519", "generation_timestamp": 1781622693, "identifier": "5d7b67c2-e7ce-4401-8c2e-6941049ad80b"}</recraft-signature></metadata></svg>