<svg xmlns="http://www.w3.org/2000/svg" height="1024" style="display: block;" version="1.1" viewBox="0 0 2048 2048" width="1024">
<path d="M 979.461 552.375 C 1033.25 547.739 1097.22 565.511 1141.51 595.904 C 1200.59 636.376 1240.88 698.943 1253.27 769.476 C 1262.66 823.804 1253.84 879.712 1228.18 928.512 C 1219.78 944.451 1209.43 959.163 1199.13 973.903 C 1209.19 983.646 1219.09 994.284 1228.67 1004.5 C 1236.64 995.574 1254.8 975.283 1268.53 985.925 C 1281.9 996.295 1295.06 1010.91 1307.05 1023.06 L 1370.37 1086.9 C 1389.91 1106.37 1409.59 1125.71 1429.4 1144.9 C 1439.01 1154.35 1448.82 1163.79 1458.04 1173.63 C 1466.52 1182.79 1466.13 1195.3 1457.51 1204.24 C 1438.05 1224.44 1416.71 1243.43 1398.08 1264.42 C 1379.08 1286.25 1363.43 1268.22 1348.64 1252.96 C 1330.12 1233.85 1310.79 1215.22 1291.72 1196.62 C 1258.28 1162.38 1224.48 1128.49 1190.32 1094.97 C 1162.16 1067.08 1170.8 1060.71 1196.22 1035.37 C 1187.17 1025.71 1176.36 1015.77 1166.69 1006.55 C 1136.41 1030.93 1110.61 1047.55 1072.94 1059.32 C 987.434 1086.03 896.398 1065.57 828.515 1007.84 C 775.514 963.216 742.478 899.313 736.716 830.269 C 731.488 761.421 755.999 691.844 801.626 640.576 C 849.712 586.544 907.815 557.627 979.461 552.375 z M 979.047 596.454 C 860.568 606.053 772.273 709.832 781.777 828.318 C 791.281 946.804 894.988 1035.18 1013.48 1025.77 C 1132.11 1016.36 1220.61 912.504 1211.1 793.883 C 1201.58 675.262 1097.66 586.845 979.047 596.454 z M 1226.31 1068.04 C 1244.42 1083.19 1258.45 1099.54 1275.4 1115.13 C 1310.87 1147.75 1343.64 1185.83 1379.2 1217.82 C 1389.3 1209.85 1399.24 1198.06 1409.09 1188.94 C 1377.64 1156.44 1344.98 1124.3 1312.74 1092.53 C 1296.48 1076.51 1273.61 1051.45 1257.07 1037.69 C 1246.65 1048.26 1237.17 1057.94 1226.31 1068.04 z" fill="rgb(244,83,35)" transform="translate(0,0)"></path>
<path d="M 811.562 1085.39 C 812.541 1085.3 813.519 1085.2 814.498 1085.1 C 881.013 1080.56 946.439 1103.77 995.206 1149.23 C 1027.9 1179.48 1052.41 1217.52 1066.45 1259.79 C 1075.99 1289.37 1078.96 1306.9 1039.84 1306.26 C 1027.07 1306.06 1012.91 1306.01 1000.05 1306.26 L 999.941 1420.01 C 999.945 1436.56 1000.83 1468.45 998.722 1483.4 C 995.658 1488.11 989.684 1495.63 983.836 1496.2 C 968.838 1497.67 952.235 1496.85 937.171 1496.78 L 845.5 1496.68 L 733.3 1496.47 C 715.433 1496.46 697.15 1497.23 679.324 1495.95 C 670.496 1496.14 663.697 1485.63 663.598 1477.18 C 662.94 1420.99 661.583 1362.16 662.661 1306.11 C 618.901 1306.8 570.228 1319.83 591.47 1259.26 C 626.709 1158.79 705.506 1095.03 811.562 1085.39 z M 838.5 1260.7 L 963.44 1260.67 C 979.552 1260.62 1003.92 1261.45 1019.03 1260.56 C 989.952 1191.04 932.321 1141.9 856.099 1131.53 C 845.6 1130.11 830.438 1128.59 820 1129.41 C 736.226 1135.86 669.074 1181.01 638.273 1260.71 C 658.67 1259.53 688.573 1260.54 709.56 1260.61 L 838.5 1260.7 z M 955.618 1451.56 C 955.967 1418.83 956.037 1386.1 955.827 1353.37 C 955.764 1339.55 954.965 1319.51 955.632 1306.11 L 707.334 1305.9 C 707.061 1354.56 707.038 1403.23 707.265 1451.89 L 864.767 1451.99 C 893.683 1452.02 927.149 1452.75 955.618 1451.56 z" fill="rgb(244,83,35)" transform="translate(0,0)"></path>
<metadata><recraft-signature>{"signed_by": "recraft", "signature_b64": "BmDz3ATVemDRv/VhZVZLfZQ2VWX/GIRTIqfs/hq2ew9FcDUqXxZaiajD3F1t1xte56Wo31FiPN2Z+60vWz22Dw==", "signing_algo": "Ed25519", "generation_timestamp": 1781624497, "identifier": "7842af37-d03d-46ba-814d-602636825aeb"}</recraft-signature></metadata></svg>