<svg xmlns="http://www.w3.org/2000/svg" height="1024" style="display: block;" version="1.1" viewBox="0 0 2048 2048" width="1024">
<path d="M 1028.43 317.35 C 1030.08 317.198 1031.34 317.077 1033 317.085 C 1047.9 317.252 1062.13 323.288 1072.6 333.883 C 1094.74 355.942 1088.9 394.332 1088.84 423.787 L 1088.75 531.96 L 1088.26 936.015 C 1089.99 936.567 1091.71 937.135 1093.43 937.721 C 1115.85 945.375 1130.42 954.926 1148.06 970.218 C 1235.93 1046.41 1219.94 1199.33 1111.36 1247.79 C 1082.09 1260.86 1057.3 1269.18 1024.46 1266.35 C 1009.17 1265.04 989.314 1263.18 996.557 1241.33 C 1001.36 1229.85 1014.61 1227.12 1025.55 1227.71 C 1048.51 1228.95 1065.45 1225.86 1086.82 1217.42 C 1118.51 1204.54 1143.85 1179.69 1157.34 1148.24 C 1171.11 1116.18 1171.38 1079.92 1158.09 1047.66 C 1143.54 1011.48 1111.85 983.389 1074.62 972.169 C 1068.58 970.346 1062.92 968.501 1057.09 966.048 C 1053.95 961.862 1049.52 955.839 1049.2 950.609 C 1048.23 934.68 1048.42 918.01 1048.37 902.081 L 1048.53 807.057 L 1048.94 518.532 L 1048.91 426.814 C 1048.88 407.457 1049.25 384.747 1047.74 365.701 C 1037.93 352.007 1020.94 354.091 1019 371.404 C 1017.6 383.883 1018.08 397.544 1018.02 410.178 C 1017.84 437.403 1017.98 464.63 1018.44 491.852 L 1018.53 646.795 L 1018.4 716.602 C 1018.46 731.097 1020.27 763.493 1016.28 776.386 C 1011.47 791.904 980.919 782.338 968.079 787.2 C 964.372 788.574 961.406 791.433 959.896 795.087 C 958.06 799.463 957.394 808.58 959.6 812.672 C 970.6 833.077 1011.31 807.798 1018.13 834.558 C 1020.01 841.938 1019.21 854.615 1019.14 862.73 L 1018.82 912.814 C 1018.68 936.846 1017.29 943.818 1025.83 966.683 C 994.131 973.152 977.552 973.532 951.127 995.632 C 893.355 1043.95 885.496 1125.07 933.189 1182.97 C 924.284 1198.44 920.574 1203.92 914.935 1220.96 C 893.666 1200.13 878.211 1174.1 870.103 1145.45 C 857.581 1102.52 862.795 1056.36 884.576 1017.31 C 904.061 981.993 939.918 949.019 979.102 937.607 C 979.539 912.811 979.502 888.008 978.988 863.214 C 962.595 861.733 949.586 860.248 936.412 848.557 C 913.667 828.373 912.907 785.857 934.181 764.374 C 947.319 751.107 960.889 747.101 979.295 746.917 C 980.581 724.707 979.565 692.112 979.569 669.119 C 961.912 668.905 849.186 671.601 842.678 666.613 C 837.194 662.41 834.75 655.211 833.763 648.625 C 831.889 636.108 832.364 581.667 834.089 569.768 C 834.774 565.047 836.358 557.561 839.901 554.051 C 847.641 546.382 892.256 549.17 904.512 549.043 C 904.942 538.256 904.705 525.571 904.733 514.652 C 883.417 513.901 832.907 524.397 835.06 494.893 C 836.894 469.765 831.892 432.563 835.84 408.459 C 836.38 405.102 837.898 401.979 840.204 399.48 C 848.648 390.398 880.987 393.154 893.95 393.131 L 978.066 393.003 C 977.939 373.979 976.736 356.253 988.709 340.025 C 999.069 325.984 1011.83 319.885 1028.43 317.35 z M 874.248 472.933 C 948.521 473.642 942.905 459.882 944.745 538.226 C 946.28 603.56 933.97 588.636 873.92 589.297 L 873.85 629.861 L 906.065 629.838 L 979.008 629.69 C 980.354 565.08 977.942 498.911 978.801 434.034 L 874.814 434.106 C 874.558 446.403 873.937 460.82 874.248 472.933 z" fill="rgb(227,75,28)" transform="translate(0,0)"></path>
<path d="M 938.732 1537.8 C 941.135 1540.2 939.9 1675.3 939.938 1692.05 L 1118.6 1691.82 C 1121.49 1645.71 1116.44 1589.47 1118.95 1542.83 C 1131.86 1553.13 1148.33 1565.65 1159.95 1576.85 C 1160.15 1594.88 1159.88 1613.42 1159.84 1631.5 L 1159.7 1681.92 C 1159.69 1695.1 1161.81 1717.43 1153.13 1728.22 C 1149.28 1733 1142.06 1735.82 1135.89 1735.83 C 1086.1 1735.86 1036.32 1736.01 986.53 1736 L 939.625 1735.97 C 921.296 1735.95 894.457 1738.34 893.901 1713.13 C 892.906 1667.97 892.233 1619.3 893.959 1574.3 C 902.598 1565.78 928.899 1544.71 938.732 1537.8 z" fill="rgb(227,75,28)" transform="translate(0,0)"></path>
<path d="M 1019.06 1381.29 C 1025.94 1380.71 1029.4 1380.86 1036.24 1381.19 C 1046.57 1387.55 1057.97 1399.38 1067.23 1407.89 L 1123.57 1459.94 L 1182.29 1513.96 C 1192.39 1523.19 1218.83 1543.75 1220.61 1556.24 C 1221.37 1561.29 1219.9 1566.43 1216.59 1570.31 C 1207.73 1580.88 1196.43 1580.63 1186.31 1572.16 C 1173.58 1561.5 1161.9 1549.94 1149.56 1538.82 L 1065.36 1462.31 C 1054.15 1452.01 1042.37 1440.02 1031.05 1430.27 C 1023.91 1423.21 1021.63 1429.24 1014.49 1435.77 L 908.251 1534.08 C 893.146 1547.91 874.45 1566.74 857.03 1577.87 C 849.005 1582.99 835.768 1575.87 832.798 1566.99 C 829.544 1557.26 832.308 1548.8 840.19 1542.06 C 862.45 1521.11 885.54 1501.13 907.743 1480.18 C 931.514 1457.33 955.686 1434.89 980.249 1412.89 C 989.087 1404.88 1008.64 1384.77 1019.06 1381.29 z" fill="rgb(227,75,28)" transform="translate(0,0)"></path>
<path d="M 1018.4 1161.36 C 1046.86 1158.94 1073.16 1168.87 1092.09 1190.2 C 1082.14 1196.8 1058.14 1206.25 1045.76 1205.68 C 1036.25 1205.25 1030.92 1200.99 1019.09 1202.58 C 963.115 1210.12 956.267 1277.83 998.068 1307.33 C 1010.07 1315.89 1025.1 1319.08 1039.55 1316.13 C 1061.04 1311.85 1073.43 1298.4 1084.89 1281.11 C 1102.49 1276.61 1111.64 1271.88 1127.35 1263.41 C 1122.41 1282.86 1115.99 1301.36 1103.59 1317.48 C 1076.18 1353.12 1028.73 1365.89 987.878 1345.53 C 931.516 1317.43 912.082 1244.2 953.604 1194.73 C 972.14 1172.65 989.773 1164.29 1018.4 1161.36 z" fill="rgb(227,75,28)" transform="translate(0,0)"></path>
<metadata><recraft-signature>{"signed_by": "recraft", "signature_b64": "k0+JfnIZKa7Fv3JdGnGXF6wDZh58VUV1oO3cCfkkuKr+BTlBBtxACOr4utBXO65xNj+0dL1fSF9Spea9ZY6kCg==", "signing_algo": "Ed25519", "generation_timestamp": 1781624501, "identifier": "007133d1-58ed-404e-9c32-e4d89b2281d9"}</recraft-signature></metadata></svg>