<svg xmlns="http://www.w3.org/2000/svg" height="1024" style="display: block;" version="1.1" viewBox="0 0 2048 2048" width="1024">
<path d="M 1288.5 636.175 C 1316.2 634.566 1325.06 654.501 1340.55 674.303 C 1350.12 686.422 1359.85 698.419 1369.73 710.291 C 1400.41 747.665 1430.1 785.659 1460.43 823.312 C 1475.85 842.458 1491.71 861.26 1506.13 881.184 L 1591.89 880.79 C 1628.58 880.633 1661.31 878.834 1696.77 891.409 C 1767.24 916.39 1817.68 986.614 1819.68 1061.28 C 1820.47 1090.5 1819.89 1120.5 1820.06 1150.01 C 1820.44 1222.04 1820.42 1294.08 1820.02 1366.11 L 1820.19 1476.17 C 1820.25 1505.41 1821.75 1537.38 1816.19 1565.85 C 1809.53 1598.97 1794.11 1629.69 1771.53 1654.82 C 1738 1692.25 1690.83 1714.62 1640.63 1716.9 C 1598.42 1718.95 1549.77 1718.03 1507.13 1718.06 L 1291.53 1718.22 C 1244.97 1718.33 1198.4 1718.2 1151.84 1717.83 C 1126.76 1717.6 1094.27 1718.76 1070.14 1714.27 C 1024.22 1704.72 985.676 1681.26 957.09 1644.59 C 915.52 1591.26 920.95 1543.37 921.002 1480.53 L 921.014 1356.57 L 920.953 1282.89 C 920.952 1256.6 915.345 1211.96 954.745 1211.98 C 969.247 1212.12 982.072 1221.42 986.71 1235.16 C 989.848 1244.17 988.391 1282.54 988.393 1294.86 L 988.656 1440.04 L 988.464 1501.38 C 988.337 1552.91 986.352 1579.74 1024.41 1619.53 C 1064.17 1654.72 1091.32 1651.8 1140.54 1651.41 L 1209.34 1651.15 L 1427.59 1651.16 L 1571.3 1651.14 C 1597.06 1651.16 1628.65 1652.65 1653.61 1649.29 C 1707.28 1642.08 1753.27 1589.88 1753.56 1535.52 C 1753.77 1497.55 1753.68 1458.99 1753.61 1420.71 L 1753.67 1220.15 L 1753.29 1106.92 C 1753.22 1092.36 1753.84 1058.84 1751.65 1045.71 C 1748 1022.97 1737.63 1001.84 1721.87 985.038 C 1706.38 968.449 1686.48 956.634 1664.5 950.99 C 1644.43 945.864 1620.36 947.393 1599.49 947.32 C 1564.4 947.197 1529.02 947.861 1493.94 947.392 C 1488.78 947.323 1476.14 945.411 1472.77 942.535 C 1456.95 929.021 1440.34 905.532 1427.41 889.212 C 1406.68 863.081 1385.71 837.142 1364.5 811.398 C 1353.04 797.295 1341.32 781.265 1329.12 768.04 C 1328.67 803.234 1329.55 838.981 1329.11 874.202 C 1328.98 885.243 1329.84 911.768 1328.25 921.486 C 1327.3 927.436 1324.7 932.998 1320.73 937.532 C 1316.76 942.027 1310.56 945.495 1304.7 946.186 C 1286.68 948.313 1265.51 947.431 1247.18 947.401 L 1151.13 947.293 C 1131.87 947.282 1112.66 946.993 1093.3 948.015 C 1052.34 949.974 1011.39 978.847 992.403 1014.6 C 983.3 1031.74 985.124 1052.75 956.705 1052.88 C 948.042 1052.98 939.708 1049.56 933.62 1043.4 C 926.848 1036.44 924.357 1026.8 926.456 1017.46 C 938.006 966.095 973.638 925.318 1019.78 901.603 C 1067.15 877.257 1113.54 880.993 1164.32 881.024 L 1262.69 880.572 C 1263.62 864.198 1262.99 841.581 1262.98 824.806 L 1262.94 719.678 C 1262.94 709.453 1263.01 698.985 1262.95 688.78 C 1262.81 665.233 1260.1 643.651 1288.5 636.175 z" fill="rgb(240,69,25)" transform="translate(0,0)"></path>
<path d="M 450.566 336.318 C 469.78 334.52 509.355 335.824 530.178 335.821 L 687.935 335.786 L 898.823 335.837 C 936.818 335.786 975.58 334.819 1013.92 336.092 C 1093.83 338.744 1167.34 405.04 1180.8 483.418 C 1185.58 511.252 1183.98 546.519 1183.96 574.94 L 1183.84 692.657 L 1184.05 763.787 C 1184.1 775.541 1183.89 788.985 1183.9 800.996 C 1183.95 839.392 1132.92 846.694 1120.24 814.22 C 1115.04 800.912 1117.23 766.694 1117.24 750.204 L 1117.03 586.149 C 1117.06 563.74 1118.65 509.948 1114.82 490.261 C 1111.47 473.874 1104.37 458.487 1094.06 445.314 C 1077.84 424.521 1048.86 406.21 1022.41 403.668 C 1006.48 402.138 989.116 402.658 973.009 402.682 L 895.806 402.712 C 812.548 402.181 729.289 402.161 646.031 402.65 C 604.003 402.785 561.975 402.693 519.948 402.373 C 501.316 402.258 466.635 400.979 449.721 403.166 C 429.621 405.812 410.629 413.91 394.805 426.583 C 377.956 440.048 358.008 468.227 355.065 489.372 C 350.942 518.989 352.725 559.141 352.74 589.271 L 352.793 770.587 L 352.732 922.737 C 352.671 949.12 351.58 980.584 354.106 1006.32 C 355.765 1023.24 368.107 1046.47 379.135 1059.57 C 415.438 1102.71 458.103 1098.69 508.239 1098.6 L 582.974 1098.51 C 625.355 1098.07 624.662 1093.04 651.984 1127.32 C 659.382 1135.71 666.378 1144.49 673.206 1153.34 C 706.384 1196.36 742.672 1237.66 775.578 1280.79 C 775.868 1244.63 775.961 1208.48 775.856 1172.32 C 775.841 1156.28 775.125 1138.56 776.489 1122.71 C 777.98 1112.71 789.807 1100.49 799.71 1099.44 C 817.922 1097.52 837.371 1098.61 855.631 1098.63 L 962.444 1098.74 C 983.082 1098.77 1003.99 1099.18 1024.61 1098.08 C 1058.58 1096.28 1089.07 1076.28 1103.27 1045.22 C 1110.43 1029.57 1114.85 1013.28 1126.08 999.859 C 1137.78 985.878 1158.39 984.653 1171.76 996.975 C 1176.95 1001.76 1179.66 1008.68 1179.3 1015.98 C 1177.51 1052.15 1156.8 1088.36 1132.31 1114.18 C 1074.82 1171.2 1023.52 1165.1 951.863 1165.44 L 842.163 1166.38 L 841.941 1302.36 C 841.957 1327.16 842.212 1352.29 841.673 1377.08 C 841.444 1387.63 838.962 1396.52 830.608 1403.65 C 824.116 1409.29 815.568 1411.95 807.025 1411.01 C 788.826 1409.01 773.806 1385.24 762.988 1371.61 L 727.52 1327.13 L 598.331 1165.79 C 550.483 1163.44 501.139 1167.36 453.228 1165.01 C 420.914 1163.42 384.499 1149.62 358.893 1129.84 C 318.618 1099.18 292.655 1053.37 287.045 1003.06 C 284.644 983.204 285.616 948.662 285.605 927.391 L 285.334 801.585 L 285.335 597.17 C 285.486 569.781 284.491 513.771 288.553 489.057 C 293.472 458.352 306.106 429.398 325.271 404.909 C 357.217 364.345 399.804 342.313 450.566 336.318 z" fill="rgb(240,69,25)" transform="translate(0,0)"></path>
<metadata><recraft-signature>{"signed_by": "recraft", "signature_b64": "p0ewifF/V8BzMDC2Z6Nu2FyTBFrxMGfXYuUL4dpEAqD2+CyTgbp+k+YlSbT9kaa8j7eGbvIpjtzgu0fOhBzrBw==", "signing_algo": "Ed25519", "generation_timestamp": 1781624498, "identifier": "9f2f62d4-b337-4a80-9c9c-b76bf02d7d2b"}</recraft-signature></metadata></svg>