<svg xmlns="http://www.w3.org/2000/svg" height="1024" style="display: block;" version="1.1" viewBox="0 0 2048 2048" width="1024">
<path d="M 1577.52 593.29 C 1619.31 588.942 1654.51 605.468 1677.77 641.012 C 1683.29 649.448 1688.88 664.636 1692.99 674.232 L 1723.33 746.976 C 1759.46 832.739 1795.49 918.528 1830.97 1004.57 C 1843.81 1033.54 1847.73 1063.88 1834.63 1093.66 C 1824.62 1116.41 1808.58 1131.9 1785.84 1142.27 C 1747.06 1159.95 1707.03 1175.29 1667.74 1191.83 C 1643.27 1202.13 1636.28 1187.33 1628.8 1166.72 C 1625.28 1157.23 1621.4 1147.4 1617.8 1137.91 C 1602.35 1143.99 1582.84 1153.72 1567.4 1160.93 C 1546.56 1170.66 1525.55 1180 1504.38 1188.96 C 1507.69 1194.09 1510.85 1199.12 1514.04 1204.44 C 1543.7 1253.84 1518.67 1320.19 1462.56 1335.34 C 1452.34 1338.11 1443.46 1338.19 1432.78 1338.55 C 1433.67 1348.17 1433.86 1355.93 1432.61 1365.56 C 1427.72 1403.16 1392.92 1434.87 1355.18 1436.62 C 1347.74 1436.97 1340.47 1435.86 1333.14 1434.73 C 1333.01 1438.61 1332.79 1442.48 1332.46 1446.34 C 1328.77 1488.54 1292.99 1519.46 1252.05 1523.28 C 1245.92 1523.85 1234.59 1522.38 1228.35 1521.81 C 1224.9 1537.46 1217.46 1551.96 1206.76 1563.9 C 1191.7 1580.5 1168.15 1591.12 1145.9 1591.95 C 1106.77 1593.43 1087.97 1574.29 1062.46 1548.09 C 1048.88 1534.14 1033.69 1519.1 1019.42 1506.02 C 1004.14 1522.43 960.062 1566.95 942.529 1576.77 C 931.904 1582.73 919.133 1586.23 906.972 1586.71 C 885.228 1587.57 862.999 1578.26 847.255 1563.46 C 830.978 1548.16 820.229 1526.48 819.59 1504.02 C 816.416 1504.39 813.232 1504.67 810.042 1504.85 C 761.148 1507.51 721.646 1478.22 718.725 1427.79 C 663.675 1428.48 624.302 1394.79 620.079 1339.37 C 597.323 1336.24 587.612 1335.11 568.5 1321.64 C 548.238 1304.31 536.857 1287.52 533.699 1260.37 C 530.225 1230.51 543.598 1210.8 561.418 1188.81 C 557.021 1186.3 552.239 1184.44 547.635 1182.34 C 517.225 1168.46 487.419 1153.27 456.856 1139.72 C 453.118 1152.45 447.381 1166.15 442.52 1178.52 C 430.943 1207.98 408.067 1192.02 388.497 1184.56 C 364.9 1175.81 341.445 1166.68 318.142 1157.17 C 290.066 1145.72 268.652 1139.17 250.888 1112.91 C 214.23 1058.73 249.208 998.447 269.529 945.659 L 338.087 771.26 L 368.839 693.931 C 374.527 679.421 382.005 656.992 389.763 644.007 C 410.748 607.152 463.399 584.096 504.984 596.131 C 547.978 609.856 590.007 629.668 631.935 646.619 C 661.817 658.699 636.187 695.29 630.694 715.709 L 630.324 717.11 C 640.04 721.409 652.874 727.394 662.695 730.817 C 726.379 753.009 781.072 695.279 835.085 670.829 C 909.609 637.093 966.866 645.108 1039.81 670.64 C 1130.11 636.629 1188.73 642.829 1272.97 692.273 C 1294.71 705.034 1316.09 722.09 1340.16 730.673 C 1374.98 743.085 1407.19 730.288 1438.9 715.192 C 1432.85 702.511 1424.74 683.313 1420.62 670.112 C 1424.74 650.895 1440.57 645.789 1457.6 639.256 C 1494.3 625.185 1539.21 598.755 1577.52 593.29 z M 612.812 757.861 C 599.695 791.672 585.664 824.596 572.058 858.164 L 474.079 1101.31 C 503.68 1113.1 534.449 1129.94 563.623 1143.32 C 572.795 1147.53 583.73 1153.81 592.706 1157.53 L 633.688 1116.76 C 659.238 1091.41 680.108 1067.33 718.963 1067.79 C 763.2 1068.31 796.499 1100.62 804.609 1142.8 C 818.811 1140.92 829.488 1140.15 843.698 1143.2 C 875.16 1149.96 903.367 1178.44 908.321 1210.44 C 909.147 1215.87 909.356 1222.37 909.584 1227.91 C 933.699 1227.36 953.086 1232.32 971.149 1249.55 C 987.84 1265.47 998.839 1287.35 999.131 1310.64 C 999.161 1314.36 999.138 1318.08 999.061 1321.8 C 1013.01 1323.49 1022.07 1324.38 1035.09 1330.59 C 1085.84 1354.79 1098.54 1420.14 1064.05 1463.38 C 1060.42 1467.93 1056.19 1472.07 1052.11 1476.23 C 1074.72 1496.62 1095.89 1523.81 1120.43 1541.46 C 1134.53 1551.6 1160.37 1546.62 1170.93 1533.57 C 1178.17 1524.58 1182.6 1516.61 1182.55 1504.29 C 1182.46 1475.81 1116.43 1451.58 1134.26 1422.57 C 1141.99 1410 1159.75 1410.25 1169.6 1420.04 C 1176.6 1427 1186.58 1436.01 1193.6 1443.39 C 1212.38 1460.93 1222.2 1480.9 1251.81 1478.59 C 1282.54 1476.21 1297.5 1437.4 1282.24 1412.38 C 1273.6 1399.85 1257.19 1385.2 1245.81 1373.98 L 1173.51 1303.1 C 1166.59 1296.26 1150.17 1280.56 1145.65 1273.62 C 1137.71 1252.2 1155.3 1232.09 1173.5 1243.36 C 1189.41 1253.22 1211.01 1276.85 1224.94 1290.68 L 1292.22 1357.9 C 1311.25 1377.02 1329.83 1402.62 1360.15 1393.04 C 1372.5 1389.14 1382.16 1380.62 1388.23 1369.3 C 1393.82 1359.07 1395.12 1347.04 1391.84 1335.85 C 1387.04 1319.93 1360.57 1297.85 1348.19 1285.37 C 1317.39 1254.52 1286.31 1223.95 1254.97 1193.66 C 1242.91 1182 1224.41 1165.74 1215.06 1151.92 C 1208.81 1142.66 1218.98 1123.9 1230.25 1122.94 C 1235.7 1121.87 1241.11 1121.5 1246.19 1124.73 C 1262.5 1137.77 1278.72 1155.21 1293.42 1169.91 C 1321.57 1197.55 1349.48 1225.43 1377.14 1253.55 C 1385.97 1262.62 1406.83 1286.43 1416.98 1291.3 C 1462.29 1313.01 1504.97 1257.32 1470.56 1219.26 C 1452.69 1199.92 1432.9 1182.06 1414.34 1163.51 L 1286.66 1036.19 C 1247.45 996.556 1207.88 957.27 1167.97 918.336 C 1151.75 902.36 1129.44 877.957 1112.78 864.019 L 1019.29 925.062 C 1000.99 937.084 968.237 960.767 948.402 967.313 C 878.792 990.284 808.811 922.622 827.191 851.578 C 837.888 810.231 859.603 799.803 891.995 775.608 L 949.498 732.725 C 962.497 723.056 979.852 707.865 993.097 699.848 C 969.476 694.695 951.092 690.69 926.47 692.411 C 904.231 694.222 876.448 699.977 857.114 709.657 C 797.59 739.458 744.464 790.108 672.504 776.997 C 651.671 773.201 632.976 765.756 612.812 757.861 z M 1681.36 1139.12 C 1699.11 1131.44 1717.01 1124.08 1735.04 1117.07 C 1746.94 1112.34 1765.85 1106.26 1775.88 1098.93 C 1813.02 1071.76 1795.73 1027.96 1781.88 995.37 C 1737.4 890.709 1694.59 786.849 1649.98 682.379 C 1638.08 654.365 1613.98 634.677 1582.36 637.197 C 1561.42 641.704 1536.73 653.585 1516.46 661.883 C 1504.47 666.789 1481.92 675.722 1470.9 681.641 C 1492.91 735.544 1515.53 789.192 1538.77 842.573 L 1616.88 1029.51 C 1633 1067.77 1650.48 1106.99 1665.92 1145.34 C 1671.16 1143.37 1676.31 1141.54 1681.36 1139.12 z M 596.764 678.633 C 583.294 673.523 569.978 668.015 556.834 662.117 C 530.063 649.984 504.132 634.682 474.106 636.292 C 432.02 644.271 424.27 670.31 409.78 706.178 C 400.155 729.858 390.799 753.647 381.712 777.539 L 317.041 943.417 C 309.55 962.609 301.878 981.728 294.024 1000.77 C 289.165 1012.72 282.842 1027.19 279.253 1039.4 C 276.204 1049.87 275.804 1060.94 278.089 1071.61 C 285.572 1104.93 322.677 1111.22 349.854 1122.5 C 368.294 1130.16 386.994 1137.52 405.517 1144.98 L 409.215 1146.54 C 413.406 1142.9 580.926 721.14 596.764 678.633 z M 715.152 1383.64 C 729.914 1376.88 747.663 1357.02 759.527 1345.42 C 790.631 1315 822.106 1284.86 852.525 1253.76 C 869.17 1236.83 870.35 1216.91 855.272 1197.42 C 845.683 1185.03 831.388 1181.69 815.62 1183.13 C 811.285 1184.43 807.136 1185.59 803.506 1188.4 C 790.144 1198.75 672.875 1315.29 667.777 1325.33 C 663.091 1334.56 662.618 1346.6 666.372 1356.2 C 670.645 1367.11 679.71 1376.44 690.534 1380.95 C 698.593 1384.31 706.586 1384.84 715.152 1383.64 z M 804.925 1464.8 C 811.761 1463.62 817.374 1461.73 823.12 1457.69 C 838.019 1447.22 942.8 1344.66 950.815 1332.7 C 956.151 1324.73 957.088 1313.17 955.036 1303.99 C 952.523 1292.76 944.912 1282.45 935.043 1276.52 C 928.036 1272.3 920.669 1271.33 912.665 1271.39 C 889.178 1274.61 877.914 1290.47 861.916 1306.53 L 817.426 1351.36 C 801.066 1367.84 782.229 1384.47 767.537 1402.14 C 754.21 1418.16 762.169 1446.09 778.556 1456.87 C 787.567 1463.26 794.499 1464.29 804.925 1464.8 z M 626.152 1293.85 C 647.397 1287.86 690.538 1237.59 708.568 1220.98 C 724.504 1206.3 744.598 1186.58 757.653 1169.2 C 761.886 1163 761.792 1148.32 759.396 1141.46 C 751.521 1118.93 734.335 1110.37 711.848 1112.12 C 706.911 1113.54 698.847 1116.1 695.265 1119.59 C 660.012 1154.02 623.9 1187.4 589.431 1222.65 C 577.399 1234.96 572.208 1249.27 577.758 1266.5 C 586.051 1289.08 603.59 1295.33 626.152 1293.85 z M 910.679 1542.14 C 915.389 1540.7 924.337 1537.39 927.816 1534.03 C 942.889 1519.46 960.375 1504.57 974.397 1488.9 C 990.005 1471.46 1025.76 1443.3 1036.56 1424.5 C 1052.32 1397.07 1028.62 1361.84 992.998 1365.26 C 987.482 1366.63 982.504 1367.77 977.88 1371.29 C 965.64 1380.62 872.669 1471.89 866.443 1482.4 C 861.181 1491.28 860.956 1503.88 863.926 1513.53 C 867.322 1524.58 875.198 1533.7 885.637 1538.67 C 893.814 1542.57 901.848 1543.62 910.679 1542.14 z M 1598.17 1098.76 C 1551.17 983.692 1503.28 868.992 1454.49 754.669 C 1434.05 763.72 1417.22 771.52 1394.97 775.674 C 1327.71 788.228 1281.32 745.46 1227.5 714.846 C 1202.45 700.594 1152.38 689.044 1123.62 693.375 C 1049.71 702.26 1033.99 723.065 977.955 765.155 L 923.035 806.709 C 897.109 826.149 861.872 844.197 866.431 881.706 C 868.245 896.573 876.019 910.066 887.97 919.092 C 902.895 930.324 925.739 932.011 942.022 922.662 C 953.422 916.117 963.853 907.94 974.948 900.878 L 1066.97 842.33 C 1080.88 833.373 1112.82 807.675 1128.06 819.829 C 1137.64 827.463 1148.72 839.014 1157.6 847.75 C 1175.21 864.786 1192.62 882.032 1209.82 899.485 L 1359.67 1049.04 C 1396.17 1086.08 1433.4 1121.32 1469.74 1158.19 C 1490.44 1148.24 1512.13 1139.17 1532.98 1129.24 C 1554.56 1118.95 1576.24 1108.2 1598.17 1098.76 z" fill="rgb(233,72,24)" transform="translate(0,0)"></path>
<metadata><recraft-signature>{"signed_by": "recraft", "signature_b64": "fd69HLNtZmENSylvD8hDKud7UDKzPG/rtVAP0MJIcoQ0YbL3Ek/B3zvzUKaRSaOJVRzGORqICt9ATcdvEqWPBg==", "signing_algo": "Ed25519", "generation_timestamp": 1781624499, "identifier": "78363931-49ae-4b42-b0ad-ab7b1bd421da"}</recraft-signature></metadata></svg>